<?xml version="1.0" encoding="utf-8"?>
<!-- Svg Vector Icons : http://www.onlinewebfonts.com/icon -->
<!DOCTYPE svg PUBLIC "-//W3C//DTD SVG 1.1//EN" "http://www.w3.org/Graphics/SVG/1.1/DTD/svg11.dtd">
<svg version="1.1" xmlns="http://www.w3.org/2000/svg" xmlns:xlink="http://www.w3.org/1999/xlink" x="0px" y="0px" viewBox="0 0 1000 1000" enable-background="new 0 0 1000 1000" xml:space="preserve">
<metadata> Svg Vector Icons : http://www.onlinewebfonts.com/icon </metadata>
<g><path d="M47.7,10L47.7,10L47.7,10z"/><path d="M339.8,801.5c0,23.6-8.3,43.6-25,60.1c-16.7,16.5-36.6,24.7-59.8,24.7c-23.6,0-43.6-8.2-60.1-24.7c-16.5-16.5-24.7-36.5-24.7-60.1s8.2-43.6,24.7-60.1c16.5-16.5,36.5-24.7,60.1-24.7c23.2,0,43.1,8.2,59.8,24.7C331.5,758,339.8,778,339.8,801.5z M594.2,914.6c0,20.8-7.4,38.6-22.1,53.3c-14.7,14.7-32.5,22.1-53.3,22.1c-20.8,0-38.6-7.4-53.3-22.1c-14.7-14.7-22.1-32.5-22.1-53.3c0-20.8,7.4-38.6,22.1-53.3c14.7-14.7,32.5-22.1,53.3-22.1c20.8,0,38.6,7.4,53.3,22.1C586.9,876,594.2,893.8,594.2,914.6z M236.2,537.7c0,25.9-9.2,48.1-27.7,66.6c-18.5,18.5-40.6,27.7-66.6,27.7s-48.1-9.2-66.6-27.7c-18.5-18.5-27.7-40.6-27.7-66.6s9.2-48.1,27.7-66.6s40.6-27.7,66.6-27.7s48.1,9.2,66.6,27.7S236.2,511.8,236.2,537.7z M848.7,801.5c0,18.1-6.5,33.6-19.4,46.5c-13,13-28.5,19.4-46.5,19.4c-18.1,0-33.6-6.5-46.5-19.4c-13-13-19.4-28.5-19.4-46.5c0-18,6.5-33.5,19.4-46.5c13-13,28.5-19.5,46.5-19.4c18.1,0,33.6,6.5,46.5,19.4C842.2,768,848.7,783.5,848.7,801.5z M358.7,273.8c0,28.7-10.1,53.1-30.3,73.3c-20.2,20.2-44.7,30.3-73.3,30.3c-28.7,0-53.1-10.1-73.3-30.3c-20.2-20.2-30.3-44.7-30.3-73.3s10.1-53.1,30.3-73.3c20.2-20.2,44.7-30.3,73.3-30.3c28.7,0,53.1,10.1,73.3,30.3C348.6,220.7,358.7,245.2,358.7,273.8z M631.9,160.8c0,31.4-11,58.1-33,80.1c-22,22-48.7,33-80.1,33c-31.4,0-58.1-11-80.1-33c-22-22-33-48.7-33-80.1c0-31.4,11-58.1,33-80.1c22-22,48.7-33,80.1-33c31.4,0,58.1,11,80.1,33C620.9,102.7,631.9,129.4,631.9,160.8z M952.3,537.7c0,15.7-5.5,29.1-16.5,40.1c-11,11-24.3,16.5-40.1,16.5s-29.1-5.5-40.1-16.5c-11-11-16.5-24.3-16.5-40.1c0-15.7,5.5-29.1,16.5-40.1c11-11,24.3-16.5,40.1-16.5s29.1,5.5,40.1,16.5C946.8,508.6,952.3,522,952.3,537.7z M829.8,273.8c0,13-4.6,24.1-13.8,33.3c-9.2,9.2-20.3,13.8-33.3,13.8c-13,0-24.1-4.6-33.3-13.8c-9.2-9.2-13.8-20.3-13.8-33.3c0-13,4.6-24.1,13.8-33.3c9.2-9.2,20.3-13.8,33.3-13.8c13,0,24.1,4.6,33.3,13.8C825.2,249.8,829.8,260.9,829.8,273.8z"/></g>
</svg>